C:\GBW_MyPrograms\PredSimResults\gait1018\gait1018_v27.mot
version=1
nRows=14
nColumns=29
inDegrees=yes
endheader
                time	         pelvis_tilt	           pelvis_tx	           pelvis_ty	       hip_flexion_l	       hip_flexion_r	        knee_angle_l	        knee_angle_r	       ankle_angle_l	       ankle_angle_r	    lumbar_extension	hamstrings_r/activation	bifemsh_r/activation	glut_max_r/activation	iliopsoas_r/activation	rect_fem_r/activation	  vasti_r/activation	gastroc_r/activation	 soleus_r/activation	tib_ant_r/activation	hamstrings_l/activation	bifemsh_l/activation	glut_max_l/activation	iliopsoas_l/activation	rect_fem_l/activation	  vasti_l/activation	gastroc_l/activation	 soleus_l/activation	tib_ant_l/activation	
          1.02481356	         -7.52405561	          1.28101696	          0.89257544	         -9.20311176	         31.06706651	        -12.52098020	        -10.33200842	          4.83064158	          8.57399616	          0.92805976	          0.13784641	          0.05000000	          0.05120857	          0.05655329	          0.06853888	          0.05000000	          0.05854010	          0.05379101	          0.21182557	          0.05000000	          0.10808618	          0.05000000	          0.44120515	          0.10038977	          0.05000000	          0.24528229	          0.32505575	          0.05000000	
          1.03506170	         -7.55367391	          1.29718249	          0.89181313	         -9.11522507	         30.23755942	        -14.37500369	         -9.78130122	          3.61129078	          8.32675881	          1.34942630	          0.13420048	          0.05000000	          0.05886435	          0.05000000	          0.05854010	          0.08075147	          0.05000000	          0.05000000	          0.24488541	          0.05000000	          0.09231805	          0.05000000	          0.37684002	          0.08574443	          0.05000000	          0.20949933	          0.27763506	          0.05000000	
          1.04530984	         -7.57921978	          1.31354443	          0.89102464	         -8.82752349	         29.41711304	        -16.57600671	         -9.95987961	          2.20355921	          7.93020848	          1.79271780	          0.11949128	          0.05000000	          0.11607796	          0.05000000	          0.05000000	          0.11401108	          0.05854010	          0.05462351	          0.22451420	          0.05000000	          0.07885025	          0.05000000	          0.32186479	          0.07323562	          0.05000000	          0.17893656	          0.23713232	          0.05000000	
          1.05555797	         -7.60580654	          1.32984419	          0.89044654	         -8.28792216	         28.58490830	        -19.13239291	        -10.32515834	          0.44418377	          7.60571138	          2.23108683	          0.10205932	          0.06407824	          0.14597003	          0.05000000	          0.05000000	          0.15525073	          0.05000000	          0.05000000	          0.28589485	          0.05000000	          0.06734719	          0.08536506	          0.27490961	          0.06255165	          0.05622331	          0.15283244	          0.20253832	          0.05000000	
          1.06580611	         -7.63871126	          1.34574372	          0.89035303	         -7.47579278	         27.83541154	        -21.99971139	        -10.76893581	         -1.67914348	          7.24262129	          2.62783595	          0.09730480	          0.05473020	          0.19912382	          0.05000000	          0.05000000	          0.23233218	          0.05000000	          0.05000000	          0.29707396	          0.05000000	          0.05752226	          0.07291160	          0.23480447	          0.05342632	          0.06323369	          0.13053651	          0.17299105	          0.25773518	
          1.07605424	         -7.67997641	          1.36100128	          0.89072349	         -6.43851219	         27.18960734	        -25.07722479	        -11.31486899	         -3.38793218	          6.98542321	          2.95505935	          0.08310951	          0.05000000	          0.22148411	          0.05000000	          0.05000000	          0.28607466	          0.05000000	          0.05000000	          0.31714336	          0.05000000	          0.05000000	          0.06227490	          0.20055007	          0.10653208	          0.05400886	          0.11149321	          0.14775429	          0.22013554	
          1.08630238	         -7.72980015	          1.37559183	          0.89151981	         -5.26648761	         26.57507087	        -28.09306141	        -11.82876352	         -3.76201184	          6.82529459	          3.21055195	          0.07611759	          0.05000000	          0.20631054	          0.05000000	          0.05000000	          0.30926254	          0.05000000	          0.05000000	          0.31412206	          0.05000000	          0.05000000	          0.05318994	          0.17129286	          0.10292842	          0.05000000	          0.09522805	          0.12619918	          0.25717936	
          1.09655051	         -7.78570755	          1.38962238	          0.89276988	         -3.99616580	         25.92591154	        -30.94062264	        -12.21451719	         -3.60015040	          6.78573070	          3.40591277	          0.07901384	          0.05000000	          0.18960745	          0.05000000	          0.05000000	          0.30670363	          0.05000000	          0.05323563	          0.30863448	          0.05000000	          0.07532199	          0.05000000	          0.14630384	          0.14446499	          0.05000000	          0.08133572	          0.10778864	          0.26468650	
          1.10679865	         -7.84553653	          1.40320188	          0.89441208	         -2.66212960	         25.21211742	        -33.54993969	        -12.43055322	         -3.22818428	          6.82180779	          3.55292706	          0.08167195	          0.05000000	          0.17317722	          0.05000000	          0.05000000	          0.29039109	          0.05000000	          0.05860802	          0.29826031	          0.05160390	          0.10022599	          0.05000000	          0.12517346	          0.18386116	          0.05000000	          0.06947008	          0.09206391	          0.25009822	
          1.11704679	         -7.90702469	          1.41642381	          0.89634810	         -1.29657895	         24.42815441	        -35.86889459	        -12.47852733	         -2.70303701	          6.89729938	          3.66089270	          0.08324489	          0.05000000	          0.15686743	          0.05000000	          0.05000000	          0.26670571	          0.05000000	          0.06457495	          0.28840464	          0.06149097	          0.12805279	          0.05000000	          0.11397921	          0.21661682	          0.05000000	          0.06175649	          0.07863319	          0.23324963	
          1.12729492	         -7.96794042	          1.42935526	          0.89847035	          0.08444565	         23.58368960	        -37.88781060	        -12.38448121	         -2.07539825	          6.98007182	          3.73554546	          0.08399629	          0.05000000	          0.14250595	          0.05000000	          0.05000000	          0.24124016	          0.05000000	          0.07104196	          0.28055361	          0.06835299	          0.15553067	          0.05000000	          0.10863203	          0.23976834	          0.05000000	          0.05379435	          0.06716180	          0.21354611	
          1.13754306	         -8.02624728	          1.44204284	          0.90067421	          1.47619504	         22.69468878	        -39.62576984	        -12.18478567	         -1.38429797	          7.05370035	          3.78013816	          0.08316502	          0.05000000	          0.13130177	          0.05000000	          0.05000000	          0.21791586	          0.05000000	          0.07846015	          0.27390164	          0.07085947	          0.18534292	          0.05000000	          0.10595483	          0.25370876	          0.05000000	          0.05000000	          0.05736391	          0.19547334	
          1.14779119	         -8.08030909	          1.45451986	          0.90286843	          2.88016464	         21.77544399	        -41.11391910	        -11.91141088	         -0.68688639	          7.11235574	          3.79668682	          0.08181271	          0.05000000	          0.12417153	          0.05000000	          0.05000000	          0.19842135	          0.05658668	          0.08570991	          0.26991385	          0.06622918	          0.21651614	          0.05000000	          0.10216419	          0.25858275	          0.05000000	          0.05000000	          0.05000000	          0.18159981	
          1.15803933	         -8.12890213	          1.46681004	          0.90498111	          4.30029770	         20.83609509	        -42.38547133	        -11.58715158	         -0.03372488	          7.15293304	          3.78650033	          0.07992383	          0.05000000	          0.12032250	          0.05000000	          0.05000000	          0.18362205	          0.06572878	          0.09358733	          0.26682962	          0.05656735	          0.25127155	          0.05000000	          0.09596041	          0.25587167	          0.05000000	          0.05000000	          0.05000000	          0.18057359	
